<?xml version="1.0" encoding="utf-8"?>
<!-- Generator: Adobe Illustrator 21.1.0, SVG Export Plug-In . SVG Version: 6.00 Build 0)  -->
<svg version="1.1" id="Layer_1" xmlns="http://www.w3.org/2000/svg" xmlns:xlink="http://www.w3.org/1999/xlink" x="0px" y="0px"
	 viewBox="0 0 163 54" style="enable-background:new 0 0 163 54;" xml:space="preserve">
<style type="text/css">
	.st0{fill:none;stroke:#404040;}
	.st1{fill:#404040;}
</style>
<g>
	<path class="st0" d="M2,0.5C1.2,0.5,0.5,1.2,0.5,2v50c0,0.8,0.7,1.5,1.5,1.5h159c0.8,0,1.5-0.7,1.5-1.5V2c0-0.8-0.7-1.5-1.5-1.5H2z
		"/>
	<g>
		<path class="st1" d="M51.2,21.9c-1.4-1.8-3.5-2.9-5.4-2.9c-2.5,0-3.6,1.2-5.3,1.2c-1.8,0-3.2-1.2-5.4-1.2c-2.1,0-4.4,1.3-5.9,3.6
			c-2,3.2-1.7,9.3,1.6,14.4c1.2,1.8,2.8,3.9,4.8,3.9c1.8,0,2.3-1.2,4.8-1.2c2.5,0,3,1.2,4.8,1.2c2.1,0,3.7-2.3,4.9-4.2
			c0.7-1.1,1.3-2.3,1.8-3.5C47.2,31.5,46.5,24.6,51.2,21.9z"/>
		<path class="st1" d="M44.5,17.7c0.9-1.2,1.7-3,1.4-4.7c-1.6,0.1-3.4,1.1-4.4,2.4c-1,1.2-1.8,2.9-1.4,4.6
			C41.8,20.1,43.5,19,44.5,17.7z M61.8,23L57,37h2.2l1.4-4.3h4.6l1.5,4.3H69l-4.8-14H61.8z M61.1,31l1.3-3.7
			c0.2-0.6,0.4-1.3,0.6-1.9c0.2,0.6,0.3,1.3,0.6,2l1.3,3.7H61.1L61.1,31z M75.5,26c-1.5,0-2.7,0.5-3.5,1.6L72,26.2h-2v0.2
			c0.1,0.8,0.1,1.8,0.1,3.1V40h2.2v-4.9c0.8,0.8,1.9,1.3,3,1.2c1.2,0,2.4-0.5,3.3-1.3c1-1,1.5-2.3,1.5-4c0-1.4-0.4-2.7-1.3-3.6
			C77.9,26.5,76.8,26,75.5,26L75.5,26z M74.9,34.6c-1.2,0-2.3-0.8-2.6-1.9c-0.1-0.2-0.1-0.4-0.1-0.7v-1.6c0-0.2,0-0.3,0.1-0.5
			c0-0.1,0-0.1,0-0.2c0.3-1.2,1.4-2,2.6-2c1.9,0,2.8,1.7,2.8,3.4C77.8,33.3,76.7,34.6,74.9,34.6C74.9,34.6,74.9,34.6,74.9,34.6z
			 M85.5,26c-1.5,0-2.7,0.5-3.5,1.6L82,26.2h-2v0.2c0.1,0.8,0.1,1.8,0.1,3.1V40h2.2v-4.9c0.8,0.8,1.9,1.3,3,1.2
			c1.2,0,2.4-0.5,3.3-1.3c1-1,1.5-2.3,1.5-4c0-1.4-0.4-2.7-1.3-3.6C87.9,26.5,86.8,26,85.5,26L85.5,26z M84.9,34.6
			c-1.2,0-2.3-0.8-2.6-1.9c-0.1-0.2-0.1-0.4-0.1-0.7v-1.6c0-0.2,0-0.3,0.1-0.5c0-0.1,0-0.1,0-0.2c0.3-1.2,1.4-2,2.6-2
			c1.9,0,2.8,1.7,2.8,3.4C87.8,33.3,86.7,34.6,84.9,34.6L84.9,34.6L84.9,34.6z M98.7,29c-1.8-0.7-2.4-1.3-2.4-2.4
			c0-0.9,0.7-1.8,2.2-1.8c0.8,0,1.6,0.2,2.3,0.6l0.2,0.1l0.6-1.7l-0.1-0.1c-0.3-0.2-1.3-0.7-2.9-0.7c-2.5,0-4.3,1.5-4.3,3.8
			c0,1.8,1.1,3,3.4,3.9c1.7,0.7,2.3,1.3,2.3,2.5c0,1.3-1,2.1-2.5,2.1c-1,0-2-0.3-2.8-0.8l-0.2-0.1L94,36l0.1,0.1
			c0.7,0.5,2.1,0.9,3.3,0.9c3.4,0,4.6-2.2,4.6-4C102,31.1,101,29.9,98.7,29L98.7,29z M106.5,24l-2,0.7v1.8H103v1.7h1.5v5.3
			c0,1.3,0.2,2.2,0.7,2.7c0.5,0.5,1.2,0.8,2,0.8c0.5,0,1.1-0.1,1.6-0.3l0.1,0l-0.1-1.7l-0.2,0.1c-0.3,0.1-0.6,0.1-1,0.1
			c-0.8,0-1.1-0.5-1.1-1.8v-5.2h2.5v-1.7h-2.5V24z M114.1,26c-3,0-5.1,2.3-5.1,5.6c0,3.2,2,5.4,4.9,5.4h0c2.4,0,5.1-1.8,5.1-5.6
			c0-1.6-0.5-2.9-1.4-3.9C116.7,26.5,115.4,26,114.1,26L114.1,26z M114,35.3L114,35.3c-1.6,0-2.8-1.6-2.8-3.7c0-1.9,0.9-3.8,2.9-3.8
			c1.9,0,2.8,1.9,2.8,3.7C116.8,33.7,115.6,35.3,114,35.3L114,35.3L114,35.3z M125,26.1l-0.1,0c-0.2,0-0.3-0.1-0.5-0.1
			c-1.1,0-2.1,0.7-2.5,1.8l-0.1-1.6H120l0,0.2c0.1,0.9,0.1,1.9,0.1,3.2l0,7.3h2v-5.7c0-0.3,0-0.6,0.1-0.9c0.2-1.4,1.1-2.3,2.1-2.3
			c0.2,0,0.4,0,0.5,0l0.2,0V26.1z M129.8,26c-2.8,0-4.8,2.3-4.8,5.7c0,3.2,2,5.3,5,5.3c1.2,0,2.3-0.2,3.4-0.7l0.1-0.1l-0.4-1.6
			l-0.2,0.1c-0.8,0.4-1.7,0.5-2.7,0.5c-0.9,0-3-0.3-3.2-3.2l6.8,0l0-0.1c0.1-0.3,0.1-0.6,0.1-0.9C134,28.7,132.9,26,129.8,26
			L129.8,26z M127.1,30.3c0.2-1.3,1-2.7,2.5-2.7c0.6,0,1.2,0.2,1.6,0.6c0.6,0.6,0.7,1.6,0.7,2L127.1,30.3L127.1,30.3z M61.9,20
			c0.7-0.7,1.1-1.7,1-2.7c0-1.1-0.4-1.9-1-2.5C61.3,14.3,60.4,14,59,14c-0.7,0-1.3,0-2,0.1v6.8c0.6,0.1,1.1,0.1,1.7,0.1
			C60.1,21,61.3,20.7,61.9,20L61.9,20z M57.9,14.8c0.4-0.1,0.7-0.1,1.1-0.1c2,0,3,1,2.9,2.7c0,1.9-1.1,2.9-3.1,2.9
			c-0.3,0-0.6,0-0.9,0L57.9,14.8L57.9,14.8z M66.5,15c-1.4,0-2.5,0.9-2.5,2.5c0,1.5,1.1,2.5,2.5,2.5c1.2,0,2.5-0.8,2.5-2.6
			C69,16,68,15,66.5,15z M66.5,19.3c-0.9,0-1.5-0.8-1.5-1.8c0-0.9,0.5-1.9,1.6-1.9c1.1,0,1.5,1,1.5,1.8C68,18.6,67.4,19.3,66.5,19.3
			z M72.6,20l0.9-2.4c0.2-0.5,0.4-1.1,0.5-1.7h0c0.1,0.6,0.3,1.1,0.5,1.7l0.8,2.4h0.9l1.8-5h-1l-0.8,2.5c-0.2,0.5-0.3,1.1-0.4,1.6h0
			c-0.1-0.6-0.3-1.1-0.5-1.6L74.4,15h-0.8l-0.9,2.5c-0.2,0.5-0.4,1.1-0.5,1.6h0c-0.1-0.5-0.2-1-0.4-1.6L71,15h-1l1.7,5L72.6,20z
			 M81.2,17.2V20H82v-2.9c0-1.7-1-2.1-1.6-2.1c-0.6,0-1.2,0.3-1.5,0.9h0l0-0.8H78c0,0.4,0,0.8,0,1.3V20h0.8v-2.9
			c0-0.1,0-0.3,0.1-0.4c0.2-0.6,0.6-0.9,1.1-0.9C80.9,15.7,81.2,16.4,81.2,17.2L81.2,17.2z M84,13h1v7h-1V13z M88.5,15
			c-1.4,0-2.5,0.9-2.5,2.5c0,1.5,1.1,2.5,2.5,2.5c1.2,0,2.5-0.8,2.5-2.6C91,16,90,15,88.5,15z M88.5,19.3c-0.9,0-1.5-0.8-1.5-1.8
			c0-0.9,0.5-1.9,1.6-1.9c1.1,0,1.5,1,1.5,1.8C90,18.6,89.4,19.3,88.5,19.3z M95.1,19.3L95.1,19.3l0.1,0.6H96
			c-0.1-0.4-0.1-0.8-0.1-1.1V17c0-1-0.4-2-1.9-2c-0.6,0-1.1,0.1-1.7,0.4l0.2,0.6c0.4-0.2,0.9-0.4,1.3-0.4c1,0,1.1,0.7,1.1,1.1v0.1
			c-1.9,0-3,0.6-3,1.8c0,0.7,0.5,1.4,1.5,1.4C94.1,20,94.7,19.8,95.1,19.3z M93.8,19.4c-0.5,0-0.8-0.3-0.8-0.8
			c0-0.9,1.1-1.1,2.1-1.1v0.8c0,0.1,0,0.2,0,0.3C94.8,19.1,94.3,19.4,93.8,19.4L93.8,19.4z M99.3,20c0.9,0,1.5-0.4,1.8-0.9h0l0,0.8
			h0.9c0-0.4,0-0.8,0-1.2V13h-1v2.8h0c-0.2-0.4-0.8-0.7-1.6-0.7c-1.3,0-2.4,0.9-2.4,2.5C97,19,98,20,99.3,20L99.3,20z M99.6,15.7
			c0.6,0,1.2,0.4,1.4,1c0,0.1,0,0.2,0,0.4v0.8c0,0.1,0,0.2,0,0.4c-0.2,0.6-0.8,1.1-1.4,1c-1,0-1.6-0.8-1.6-1.7
			C98,16.5,98.6,15.8,99.6,15.7L99.6,15.7L99.6,15.7z M107.5,20c1.2,0,2.5-0.8,2.5-2.6c0-1.4-1-2.4-2.5-2.4c-1.4,0-2.5,0.9-2.5,2.5
			C105,19.1,106.1,20,107.5,20z M107.5,15.7c1.1,0,1.5,1,1.5,1.8c0,1.1-0.7,1.9-1.6,1.9c-0.9,0-1.5-0.8-1.5-1.8
			C106,16.6,106.4,15.7,107.5,15.7L107.5,15.7z M112,20h0.8v-2.9c0-0.1,0-0.3,0.1-0.4c0.2-0.6,0.6-0.9,1.1-0.9
			c0.8,0,1.1,0.7,1.1,1.5V20h0.8v-2.9c0-1.7-1-2.1-1.6-2.1c-0.6,0-1.2,0.3-1.5,0.9h0l0-0.8H112c0,0.4,0,0.8,0,1.3L112,20L112,20z
			 M119.8,18.4c0,0.6,0.1,1,0.4,1.2c0.3,0.3,0.6,0.4,1,0.4c0.3,0,0.6,0,0.8-0.1l0-0.7c-0.2,0-0.4,0.1-0.5,0.1
			c-0.5,0-0.7-0.3-0.7-0.9v-2.6h1.3v-0.7h-1.3V14l-0.9,0.3v0.9H119v0.7h0.8C119.8,15.8,119.8,18.4,119.8,18.4z M124.9,17.1
			c0-0.1,0-0.3,0.1-0.4c0.2-0.5,0.6-0.9,1.1-0.9c0.8,0,1.1,0.6,1.1,1.4V20h0.9v-2.8c0-1.6-1-2-1.6-2c-0.3,0-0.6,0.1-0.9,0.2
			c-0.3,0.1-0.5,0.4-0.6,0.6h0v-3H124v7h0.9L124.9,17.1z M131.8,20c0.6,0,1.3-0.1,1.9-0.3l-0.2-0.6c-0.5,0.2-1,0.3-1.6,0.2
			c-1,0-1.9-0.5-1.9-1.7h4c0-0.1,0-0.3,0-0.4c0-0.9-0.5-2.2-2.3-2.2c-1.6,0-2.7,1.1-2.7,2.6S130.1,20,131.8,20z M131.6,15.6
			c1.1,0,1.4,0.9,1.4,1.4h-3C130.1,16.4,130.5,15.6,131.6,15.6L131.6,15.6z"/>
	</g>
</g>
</svg>
